<svg xmlns="http://www.w3.org/2000/svg" viewBox="0 0 64 72" role="img" aria-labelledby="title"><title>CampusArchive crest</title><path d="M32 3 57 12v20c0 17-10.5 28.5-25 36C17.5 60.5 7 49 7 32V12L32 3Z" fill="#073B2B" stroke="#B8892F" stroke-width="3"/><path d="M20 23c4.5.2 8.3 1.5 12 4.5 3.7-3 7.5-4.3 12-4.5v27c-4.4.1-8.2 1.5-12 4.7-3.8-3.2-7.6-4.6-12-4.7V23Z" fill="#F7F3EA" stroke="#B8892F" stroke-width="2"/><path d="M32 27.5v27M24 30.5c2.8.5 5 1.4 8 3.4m8-3.4c-2.8.5-5 1.4-8 3.4" fill="none" stroke="#B8892F" stroke-width="2" stroke-linecap="round"/></svg>
